<?xml version="1.0" encoding="UTF-8" standalone="no"?><!DOCTYPE svg PUBLIC "-//W3C//DTD SVG 1.1//EN" "http://www.w3.org/Graphics/SVG/1.1/DTD/svg11.dtd"><svg width="100%" height="100%" viewBox="0 0 720 240" version="1.1" xmlns="http://www.w3.org/2000/svg" xmlns:xlink="http://www.w3.org/1999/xlink" xml:space="preserve" xmlns:serif="http://www.serif.com/" style="fill-rule:evenodd;clip-rule:evenodd;stroke-linejoin:round;stroke-miterlimit:2;"><g><path d="M38.667,96.213l0,100.907c0,1.59 -1.29,2.88 -2.88,2.88l-8.907,0c-1.59,0 -2.88,-1.29 -2.88,-2.88l0,-100.907c0,-1.59 1.29,-2.88 2.88,-2.88l8.907,0c1.59,0 2.88,1.29 2.88,2.88Z" style="fill:url(#_Linear1);"/><path d="M64,76.213l0,120.907c0,1.59 -1.29,2.88 -2.88,2.88l-8.907,0c-1.59,0 -2.88,-1.29 -2.88,-2.88l0,-120.907c0,-1.59 1.29,-2.88 2.88,-2.88l8.907,0c1.59,0 2.88,1.29 2.88,2.88Z" style="fill:url(#_Linear2);"/><path d="M89.333,58.88l0,138.24c0,1.59 -1.29,2.88 -2.88,2.88l-8.907,0c-1.59,0 -2.88,-1.29 -2.88,-2.88l0,-138.24c0,-1.59 1.29,-2.88 2.88,-2.88l8.907,0c1.59,0 2.88,1.29 2.88,2.88Z" style="fill:url(#_Linear3);"/><path d="M114.667,42.88l0,154.24c0,1.59 -1.29,2.88 -2.88,2.88l-8.907,0c-1.59,0 -2.88,-1.29 -2.88,-2.88l0,-154.24c0,-1.59 1.29,-2.88 2.88,-2.88l8.907,0c1.59,0 2.88,1.29 2.88,2.88Z" style="fill:url(#_Linear4);"/><path d="M140,42.88l0,154.24c0,1.59 -1.29,2.88 -2.88,2.88l-8.907,0c-1.59,0 -2.88,-1.29 -2.88,-2.88l0,-154.24c0,-1.59 1.29,-2.88 2.88,-2.88l8.907,0c1.59,0 2.88,1.29 2.88,2.88Z" style="fill:url(#_Linear5);"/><path d="M165.333,58.88l0,138.24c0,1.59 -1.29,2.88 -2.88,2.88l-8.907,0c-1.59,0 -2.88,-1.29 -2.88,-2.88l0,-138.24c0,-1.59 1.29,-2.88 2.88,-2.88l8.907,0c1.59,0 2.88,1.29 2.88,2.88Z" style="fill:url(#_Linear6);"/><path d="M190.667,76.213l0,120.907c0,1.59 -1.29,2.88 -2.88,2.88l-8.907,0c-1.59,0 -2.88,-1.29 -2.88,-2.88l0,-120.907c0,-1.59 1.29,-2.88 2.88,-2.88l8.907,0c1.59,0 2.88,1.29 2.88,2.88Z" style="fill:url(#_Linear7);"/><path d="M216,96.213l0,100.907c0,1.59 -1.29,2.88 -2.88,2.88l-8.907,0c-1.59,0 -2.88,-1.29 -2.88,-2.88l0,-100.907c0,-1.59 1.29,-2.88 2.88,-2.88l8.907,0c1.59,0 2.88,1.29 2.88,2.88Z" style="fill:url(#_Linear8);"/><g transform="matrix(85.511962,0,0,85.511962,705.343233,121.485223)"></g><text x="241.207px" y="121.485px" style="font-family:'ArialMT', 'Arial', sans-serif;font-size:85.512px;">KEYST<tspan x="520.039px 586.553px " y="121.485px 121.485px ">ON</tspan>E</text><g transform="matrix(48.98258,0,0,48.98258,704.768407,180.213646)"></g><text x="242.902px" y="180.214px" style="font-family:'ArialMT', 'Arial', sans-serif;font-size:48.983px;fill:#80c0e0;">I N <tspan x="318.217px 347.253px 360.862px " y="180.214px 180.214px 180.214px ">T E</tspan> G R <tspan x="505.131px 535.099px 547.823px 576.859px 590.468px " y="180.214px 180.214px 180.214px 180.214px 180.214px ">A T I</tspan> O N</text></g><defs><linearGradient id="_Linear1" x1="0" y1="0" x2="1" y2="0" gradientUnits="userSpaceOnUse" gradientTransform="matrix(0,106.666667,-106.666667,0,24,93.333333)"><stop offset="0" style="stop-color:#c5e4f3;stop-opacity:1"/><stop offset="1" style="stop-color:#7fc0e0;stop-opacity:1"/></linearGradient><linearGradient id="_Linear2" x1="0" y1="0" x2="1" y2="0" gradientUnits="userSpaceOnUse" gradientTransform="matrix(0,126.666667,-126.666667,0,49.333333,73.333333)"><stop offset="0" style="stop-color:#c5e4f3;stop-opacity:1"/><stop offset="1" style="stop-color:#7fc0e0;stop-opacity:1"/></linearGradient><linearGradient id="_Linear3" x1="0" y1="0" x2="1" y2="0" gradientUnits="userSpaceOnUse" gradientTransform="matrix(0,144,-144,0,74.666667,56)"><stop offset="0" style="stop-color:#c5e4f3;stop-opacity:1"/><stop offset="1" style="stop-color:#7fc0e0;stop-opacity:1"/></linearGradient><linearGradient id="_Linear4" x1="0" y1="0" x2="1" y2="0" gradientUnits="userSpaceOnUse" gradientTransform="matrix(0,160,-160,0,100,40)"><stop offset="0" style="stop-color:#c5e4f3;stop-opacity:1"/><stop offset="1" style="stop-color:#7fc0e0;stop-opacity:1"/></linearGradient><linearGradient id="_Linear5" x1="0" y1="0" x2="1" y2="0" gradientUnits="userSpaceOnUse" gradientTransform="matrix(0,160,-160,0,125.333333,40)"><stop offset="0" style="stop-color:#c5e4f3;stop-opacity:1"/><stop offset="1" style="stop-color:#7fc0e0;stop-opacity:1"/></linearGradient><linearGradient id="_Linear6" x1="0" y1="0" x2="1" y2="0" gradientUnits="userSpaceOnUse" gradientTransform="matrix(0,144,-144,0,150.666667,56)"><stop offset="0" style="stop-color:#c5e4f3;stop-opacity:1"/><stop offset="1" style="stop-color:#7fc0e0;stop-opacity:1"/></linearGradient><linearGradient id="_Linear7" x1="0" y1="0" x2="1" y2="0" gradientUnits="userSpaceOnUse" gradientTransform="matrix(0,126.666667,-126.666667,0,176,73.333333)"><stop offset="0" style="stop-color:#c5e4f3;stop-opacity:1"/><stop offset="1" style="stop-color:#7fc0e0;stop-opacity:1"/></linearGradient><linearGradient id="_Linear8" x1="0" y1="0" x2="1" y2="0" gradientUnits="userSpaceOnUse" gradientTransform="matrix(0,106.666667,-106.666667,0,201.333333,93.333333)"><stop offset="0" style="stop-color:#c5e4f3;stop-opacity:1"/><stop offset="1" style="stop-color:#7fc0e0;stop-opacity:1"/></linearGradient></defs></svg>